#define 3fb9e9cd67ef44118b86103554602277-0_width 16
#define 3fb9e9cd67ef44118b86103554602277-0_height 16
static char 3fb9e9cd67ef44118b86103554602277-0_bits[] = {
  0x07, 0xF0, 0x07, 0x00, 0x0F, 0x00, 0x07, 0x00, 0x03, 0x00, 0x01, 0x00, 
  0x01, 0x00, 0x01, 0x00, 0x01, 0x00, 0x01, 0x00, 0x00, 0x00, 0x00, 0x00, 
  0x00, 0xE0, 0x00, 0xF0, 0x01, 0xFE, 0x81, 0xFF, };
